<?xml version="1.0" encoding="UTF-8" standalone="no"?>
<!DOCTYPE svg PUBLIC "-//W3C//DTD SVG 1.1//EN"
 "http://www.w3.org/Graphics/SVG/1.1/DTD/svg11.dtd">
<!-- Generated by graphviz version 14.1.1 (20251213.1925)
 -->
<!-- Title: InheritanceTree Pages: 1 -->
<svg width="366pt" height="861pt"
 viewBox="0.00 0.00 366.00 861.00" xmlns="http://www.w3.org/2000/svg" xmlns:xlink="http://www.w3.org/1999/xlink">
<g id="graph0" class="graph" transform="scale(1 1) rotate(0) translate(4 856.5)">
<title>InheritanceTree</title>
<polygon fill="white" stroke="none" points="-4,4 -4,-856.5 362.25,-856.5 362.25,4 -4,4"/>
<text xml:space="preserve" text-anchor="middle" x="179.12" y="-7.2" font-family="Times New Roman,serif" font-size="14.00">simple_toml &#45; Inheritance Hierarchy</text>
<!-- SIMPLE_TOML -->
<g id="node1" class="node">
<title>SIMPLE_TOML</title>
<path fill="none" stroke="black" d="M108.25,-60.5C108.25,-60.5 21.75,-60.5 21.75,-60.5 15.75,-60.5 9.75,-54.5 9.75,-48.5 9.75,-48.5 9.75,-36.5 9.75,-36.5 9.75,-30.5 15.75,-24.5 21.75,-24.5 21.75,-24.5 108.25,-24.5 108.25,-24.5 114.25,-24.5 120.25,-30.5 120.25,-36.5 120.25,-36.5 120.25,-48.5 120.25,-48.5 120.25,-54.5 114.25,-60.5 108.25,-60.5"/>
<text xml:space="preserve" text-anchor="middle" x="65" y="-37.45" font-family="Times New Roman,serif" font-size="14.00">SIMPLE_TOML</text>
</g>
<!-- TOML_ARRAY -->
<g id="node2" class="node">
<title>TOML_ARRAY</title>
<path fill="none" stroke="black" d="M107.12,-564.5C107.12,-564.5 22.88,-564.5 22.88,-564.5 16.88,-564.5 10.88,-558.5 10.88,-552.5 10.88,-552.5 10.88,-540.5 10.88,-540.5 10.88,-534.5 16.88,-528.5 22.88,-528.5 22.88,-528.5 107.12,-528.5 107.12,-528.5 113.12,-528.5 119.12,-534.5 119.12,-540.5 119.12,-540.5 119.12,-552.5 119.12,-552.5 119.12,-558.5 113.12,-564.5 107.12,-564.5"/>
<text xml:space="preserve" text-anchor="middle" x="65" y="-541.45" font-family="Times New Roman,serif" font-size="14.00">TOML_ARRAY</text>
</g>
<!-- TOML_VALUE -->
<g id="node3" class="node">
<title>TOML_VALUE</title>
<path fill="none" stroke="black" d="M339.12,-348.5C339.12,-348.5 257.12,-348.5 257.12,-348.5 251.12,-348.5 245.12,-342.5 245.12,-336.5 245.12,-336.5 245.12,-324.5 245.12,-324.5 245.12,-318.5 251.12,-312.5 257.12,-312.5 257.12,-312.5 339.12,-312.5 339.12,-312.5 345.12,-312.5 351.12,-318.5 351.12,-324.5 351.12,-324.5 351.12,-336.5 351.12,-336.5 351.12,-342.5 345.12,-348.5 339.12,-348.5"/>
<text xml:space="preserve" text-anchor="middle" x="298.12" y="-325.45" font-family="Times New Roman,serif" font-size="14.00">TOML_VALUE</text>
</g>
<!-- TOML_ARRAY&#45;&gt;TOML_VALUE -->
<g id="edge1" class="edge">
<title>TOML_ARRAY&#45;&gt;TOML_VALUE</title>
<path fill="none" stroke="black" d="M119.6,-546.5C176.75,-546.5 258.25,-546.5 258.25,-546.5 258.25,-546.5 258.25,-360.43 258.25,-360.43"/>
<polygon fill="none" stroke="black" points="261.75,-360.43 258.25,-350.43 254.75,-360.43 261.75,-360.43"/>
</g>
<!-- TOML_BOOLEAN -->
<g id="node4" class="node">
<title>TOML_BOOLEAN</title>
<path fill="none" stroke="black" d="M116.12,-492.5C116.12,-492.5 13.88,-492.5 13.88,-492.5 7.88,-492.5 1.88,-486.5 1.88,-480.5 1.88,-480.5 1.88,-468.5 1.88,-468.5 1.88,-462.5 7.88,-456.5 13.88,-456.5 13.88,-456.5 116.12,-456.5 116.12,-456.5 122.12,-456.5 128.12,-462.5 128.12,-468.5 128.12,-468.5 128.12,-480.5 128.12,-480.5 128.12,-486.5 122.12,-492.5 116.12,-492.5"/>
<text xml:space="preserve" text-anchor="middle" x="65" y="-469.45" font-family="Times New Roman,serif" font-size="14.00">TOML_BOOLEAN</text>
</g>
<!-- TOML_BOOLEAN&#45;&gt;TOML_VALUE -->
<g id="edge2" class="edge">
<title>TOML_BOOLEAN&#45;&gt;TOML_VALUE</title>
<path fill="none" stroke="black" d="M128.58,-474.5C182.53,-474.5 251.25,-474.5 251.25,-474.5 251.25,-474.5 251.25,-360.25 251.25,-360.25"/>
<polygon fill="none" stroke="black" points="254.75,-360.25 251.25,-350.25 247.75,-360.25 254.75,-360.25"/>
</g>
<!-- TOML_DATETIME -->
<g id="node5" class="node">
<title>TOML_DATETIME</title>
<path fill="none" stroke="black" d="M118,-420.5C118,-420.5 12,-420.5 12,-420.5 6,-420.5 0,-414.5 0,-408.5 0,-408.5 0,-396.5 0,-396.5 0,-390.5 6,-384.5 12,-384.5 12,-384.5 118,-384.5 118,-384.5 124,-384.5 130,-390.5 130,-396.5 130,-396.5 130,-408.5 130,-408.5 130,-414.5 124,-420.5 118,-420.5"/>
<text xml:space="preserve" text-anchor="middle" x="65" y="-397.45" font-family="Times New Roman,serif" font-size="14.00">TOML_DATETIME</text>
</g>
<!-- TOML_DATETIME&#45;&gt;TOML_VALUE -->
<g id="edge3" class="edge">
<title>TOML_DATETIME&#45;&gt;TOML_VALUE</title>
<path fill="none" stroke="black" d="M122.25,-384.28C122.25,-365.67 122.25,-339.5 122.25,-339.5 122.25,-339.5 233.37,-339.5 233.37,-339.5"/>
<polygon fill="none" stroke="black" points="233.37,-343 243.37,-339.5 233.37,-336 233.37,-343"/>
</g>
<!-- TOML_FLOAT -->
<g id="node6" class="node">
<title>TOML_FLOAT</title>
<path fill="none" stroke="black" d="M104.88,-348.5C104.88,-348.5 25.12,-348.5 25.12,-348.5 19.12,-348.5 13.12,-342.5 13.12,-336.5 13.12,-336.5 13.12,-324.5 13.12,-324.5 13.12,-318.5 19.12,-312.5 25.12,-312.5 25.12,-312.5 104.88,-312.5 104.88,-312.5 110.88,-312.5 116.88,-318.5 116.88,-324.5 116.88,-324.5 116.88,-336.5 116.88,-336.5 116.88,-342.5 110.88,-348.5 104.88,-348.5"/>
<text xml:space="preserve" text-anchor="middle" x="65" y="-325.45" font-family="Times New Roman,serif" font-size="14.00">TOML_FLOAT</text>
</g>
<!-- TOML_FLOAT&#45;&gt;TOML_VALUE -->
<g id="edge4" class="edge">
<title>TOML_FLOAT&#45;&gt;TOML_VALUE</title>
<path fill="none" stroke="black" d="M117.32,-330.5C117.32,-330.5 233.26,-330.5 233.26,-330.5"/>
<polygon fill="none" stroke="black" points="233.26,-334 243.26,-330.5 233.26,-327 233.26,-334"/>
</g>
<!-- TOML_INTEGER -->
<g id="node7" class="node">
<title>TOML_INTEGER</title>
<path fill="none" stroke="black" d="M112.75,-276.5C112.75,-276.5 17.25,-276.5 17.25,-276.5 11.25,-276.5 5.25,-270.5 5.25,-264.5 5.25,-264.5 5.25,-252.5 5.25,-252.5 5.25,-246.5 11.25,-240.5 17.25,-240.5 17.25,-240.5 112.75,-240.5 112.75,-240.5 118.75,-240.5 124.75,-246.5 124.75,-252.5 124.75,-252.5 124.75,-264.5 124.75,-264.5 124.75,-270.5 118.75,-276.5 112.75,-276.5"/>
<text xml:space="preserve" text-anchor="middle" x="65" y="-253.45" font-family="Times New Roman,serif" font-size="14.00">TOML_INTEGER</text>
</g>
<!-- TOML_INTEGER&#45;&gt;TOML_VALUE -->
<g id="edge5" class="edge">
<title>TOML_INTEGER&#45;&gt;TOML_VALUE</title>
<path fill="none" stroke="black" d="M119.25,-276.72C119.25,-295.33 119.25,-321.5 119.25,-321.5 119.25,-321.5 233.43,-321.5 233.43,-321.5"/>
<polygon fill="none" stroke="black" points="233.43,-325 243.43,-321.5 233.43,-318 233.43,-325"/>
</g>
<!-- TOML_STRING -->
<g id="node8" class="node">
<title>TOML_STRING</title>
<path fill="none" stroke="black" d="M108.25,-204.5C108.25,-204.5 21.75,-204.5 21.75,-204.5 15.75,-204.5 9.75,-198.5 9.75,-192.5 9.75,-192.5 9.75,-180.5 9.75,-180.5 9.75,-174.5 15.75,-168.5 21.75,-168.5 21.75,-168.5 108.25,-168.5 108.25,-168.5 114.25,-168.5 120.25,-174.5 120.25,-180.5 120.25,-180.5 120.25,-192.5 120.25,-192.5 120.25,-198.5 114.25,-204.5 108.25,-204.5"/>
<text xml:space="preserve" text-anchor="middle" x="65" y="-181.45" font-family="Times New Roman,serif" font-size="14.00">TOML_STRING</text>
</g>
<!-- TOML_STRING&#45;&gt;TOML_VALUE -->
<g id="edge6" class="edge">
<title>TOML_STRING&#45;&gt;TOML_VALUE</title>
<path fill="none" stroke="black" d="M120.71,-186.5C184.49,-186.5 280.25,-186.5 280.25,-186.5 280.25,-186.5 280.25,-300.75 280.25,-300.75"/>
<polygon fill="none" stroke="black" points="276.75,-300.75 280.25,-310.75 283.75,-300.75 276.75,-300.75"/>
</g>
<!-- TOML_TABLE -->
<g id="node9" class="node">
<title>TOML_TABLE</title>
<path fill="none" stroke="black" d="M105.25,-132.5C105.25,-132.5 24.75,-132.5 24.75,-132.5 18.75,-132.5 12.75,-126.5 12.75,-120.5 12.75,-120.5 12.75,-108.5 12.75,-108.5 12.75,-102.5 18.75,-96.5 24.75,-96.5 24.75,-96.5 105.25,-96.5 105.25,-96.5 111.25,-96.5 117.25,-102.5 117.25,-108.5 117.25,-108.5 117.25,-120.5 117.25,-120.5 117.25,-126.5 111.25,-132.5 105.25,-132.5"/>
<text xml:space="preserve" text-anchor="middle" x="65" y="-109.45" font-family="Times New Roman,serif" font-size="14.00">TOML_TABLE</text>
</g>
<!-- TOML_TABLE&#45;&gt;TOML_VALUE -->
<g id="edge7" class="edge">
<title>TOML_TABLE&#45;&gt;TOML_VALUE</title>
<path fill="none" stroke="black" d="M117.67,-114.5C191.34,-114.5 316.25,-114.5 316.25,-114.5 316.25,-114.5 316.25,-300.57 316.25,-300.57"/>
<polygon fill="none" stroke="black" points="312.75,-300.57 316.25,-310.57 319.75,-300.57 312.75,-300.57"/>
</g>
<!-- TOML_LEXER -->
<g id="node10" class="node">
<title>TOML_LEXER</title>
<path fill="none" stroke="black" d="M105.62,-708.5C105.62,-708.5 24.38,-708.5 24.38,-708.5 18.38,-708.5 12.38,-702.5 12.38,-696.5 12.38,-696.5 12.38,-684.5 12.38,-684.5 12.38,-678.5 18.38,-672.5 24.38,-672.5 24.38,-672.5 105.62,-672.5 105.62,-672.5 111.62,-672.5 117.62,-678.5 117.62,-684.5 117.62,-684.5 117.62,-696.5 117.62,-696.5 117.62,-702.5 111.62,-708.5 105.62,-708.5"/>
<text xml:space="preserve" text-anchor="middle" x="65" y="-685.45" font-family="Times New Roman,serif" font-size="14.00">TOML_LEXER</text>
</g>
<!-- TOML_TOKEN -->
<g id="node11" class="node">
<title>TOML_TOKEN</title>
<path fill="none" stroke="black" d="M339.88,-708.5C339.88,-708.5 256.38,-708.5 256.38,-708.5 250.38,-708.5 244.38,-702.5 244.38,-696.5 244.38,-696.5 244.38,-684.5 244.38,-684.5 244.38,-678.5 250.38,-672.5 256.38,-672.5 256.38,-672.5 339.88,-672.5 339.88,-672.5 345.88,-672.5 351.88,-678.5 351.88,-684.5 351.88,-684.5 351.88,-696.5 351.88,-696.5 351.88,-702.5 345.88,-708.5 339.88,-708.5"/>
<text xml:space="preserve" text-anchor="middle" x="298.12" y="-685.45" font-family="Times New Roman,serif" font-size="14.00">TOML_TOKEN</text>
</g>
<!-- TOML_LEXER&#45;&gt;TOML_TOKEN -->
<g id="edge8" class="edge">
<title>TOML_LEXER&#45;&gt;TOML_TOKEN</title>
<path fill="none" stroke="black" d="M117.9,-696.5C117.9,-696.5 232.71,-696.5 232.71,-696.5"/>
<polygon fill="none" stroke="black" points="232.71,-700 242.71,-696.5 232.71,-693 232.71,-700"/>
</g>
<!-- NONE -->
<g id="node12" class="node">
<title>NONE</title>
<path fill="none" stroke="black" d="M313.12,-636.5C313.12,-636.5 283.12,-636.5 283.12,-636.5 277.12,-636.5 271.12,-630.5 271.12,-624.5 271.12,-624.5 271.12,-612.5 271.12,-612.5 271.12,-606.5 277.12,-600.5 283.12,-600.5 283.12,-600.5 313.12,-600.5 313.12,-600.5 319.12,-600.5 325.12,-606.5 325.12,-612.5 325.12,-612.5 325.12,-624.5 325.12,-624.5 325.12,-630.5 319.12,-636.5 313.12,-636.5"/>
<text xml:space="preserve" text-anchor="middle" x="298.12" y="-613.45" font-family="Times New Roman,serif" font-size="14.00">NONE</text>
</g>
<!-- TOML_LEXER&#45;&gt;NONE -->
<g id="edge9" class="edge">
<title>TOML_LEXER&#45;&gt;NONE</title>
<path fill="none" stroke="black" d="M117.91,-684.5C121.81,-684.5 124.25,-684.5 124.25,-684.5 124.25,-684.5 124.25,-618.5 124.25,-618.5 124.25,-618.5 259.44,-618.5 259.44,-618.5"/>
<polygon fill="none" stroke="black" points="259.44,-622 269.44,-618.5 259.44,-615 259.44,-622"/>
</g>
<!-- TOML_PARSER -->
<g id="node13" class="node">
<title>TOML_PARSER</title>
<path fill="none" stroke="black" d="M109,-636.5C109,-636.5 21,-636.5 21,-636.5 15,-636.5 9,-630.5 9,-624.5 9,-624.5 9,-612.5 9,-612.5 9,-606.5 15,-600.5 21,-600.5 21,-600.5 109,-600.5 109,-600.5 115,-600.5 121,-606.5 121,-612.5 121,-612.5 121,-624.5 121,-624.5 121,-630.5 115,-636.5 109,-636.5"/>
<text xml:space="preserve" text-anchor="middle" x="65" y="-613.45" font-family="Times New Roman,serif" font-size="14.00">TOML_PARSER</text>
</g>
<!-- TOML_PARSER&#45;&gt;TOML_TOKEN -->
<g id="edge10" class="edge">
<title>TOML_PARSER&#45;&gt;TOML_TOKEN</title>
<path fill="none" stroke="black" d="M121.3,-627.5C180.22,-627.5 264.25,-627.5 264.25,-627.5 264.25,-627.5 264.25,-660.76 264.25,-660.76"/>
<polygon fill="none" stroke="black" points="260.75,-660.76 264.25,-670.76 267.75,-660.76 260.75,-660.76"/>
</g>
<!-- TOML_PARSER&#45;&gt;NONE -->
<g id="edge11" class="edge">
<title>TOML_PARSER&#45;&gt;NONE</title>
<path fill="none" stroke="black" d="M121.43,-609.5C121.43,-609.5 259.22,-609.5 259.22,-609.5"/>
<polygon fill="none" stroke="black" points="259.22,-613 269.22,-609.5 259.22,-606 259.22,-613"/>
</g>
<!-- LIB_TESTS -->
<g id="node14" class="node">
<title>LIB_TESTS</title>
<path fill="none" stroke="black" d="M95.12,-780.5C95.12,-780.5 34.88,-780.5 34.88,-780.5 28.88,-780.5 22.88,-774.5 22.88,-768.5 22.88,-768.5 22.88,-756.5 22.88,-756.5 22.88,-750.5 28.88,-744.5 34.88,-744.5 34.88,-744.5 95.12,-744.5 95.12,-744.5 101.12,-744.5 107.12,-750.5 107.12,-756.5 107.12,-756.5 107.12,-768.5 107.12,-768.5 107.12,-774.5 101.12,-780.5 95.12,-780.5"/>
<text xml:space="preserve" text-anchor="middle" x="65" y="-757.45" font-family="Times New Roman,serif" font-size="14.00">LIB_TESTS</text>
</g>
<!-- TEST_SET_BASE -->
<g id="node15" class="node">
<title>TEST_SET_BASE</title>
<path fill="none" stroke="black" d="M346.25,-780.5C346.25,-780.5 250,-780.5 250,-780.5 244,-780.5 238,-774.5 238,-768.5 238,-768.5 238,-756.5 238,-756.5 238,-750.5 244,-744.5 250,-744.5 250,-744.5 346.25,-744.5 346.25,-744.5 352.25,-744.5 358.25,-750.5 358.25,-756.5 358.25,-756.5 358.25,-768.5 358.25,-768.5 358.25,-774.5 352.25,-780.5 346.25,-780.5"/>
<text xml:space="preserve" text-anchor="middle" x="298.12" y="-757.45" font-family="Times New Roman,serif" font-size="14.00">TEST_SET_BASE</text>
</g>
<!-- LIB_TESTS&#45;&gt;TEST_SET_BASE -->
<g id="edge12" class="edge">
<title>LIB_TESTS&#45;&gt;TEST_SET_BASE</title>
<path fill="none" stroke="black" d="M107.49,-762.5C107.49,-762.5 226.43,-762.5 226.43,-762.5"/>
<polygon fill="none" stroke="black" points="226.43,-766 236.43,-762.5 226.43,-759 226.43,-766"/>
</g>
<!-- TEST_APP -->
<g id="node16" class="node">
<title>TEST_APP</title>
<path fill="none" stroke="black" d="M92.88,-852.5C92.88,-852.5 37.12,-852.5 37.12,-852.5 31.12,-852.5 25.12,-846.5 25.12,-840.5 25.12,-840.5 25.12,-828.5 25.12,-828.5 25.12,-822.5 31.12,-816.5 37.12,-816.5 37.12,-816.5 92.88,-816.5 92.88,-816.5 98.88,-816.5 104.88,-822.5 104.88,-828.5 104.88,-828.5 104.88,-840.5 104.88,-840.5 104.88,-846.5 98.88,-852.5 92.88,-852.5"/>
<text xml:space="preserve" text-anchor="middle" x="65" y="-829.45" font-family="Times New Roman,serif" font-size="14.00">TEST_APP</text>
</g>
</g>
</svg>
