<?xml version="1.0" encoding="UTF-8" standalone="no"?>
<!DOCTYPE svg PUBLIC "-//W3C//DTD SVG 1.1//EN"
 "http://www.w3.org/Graphics/SVG/1.1/DTD/svg11.dtd">
<!-- Generated by graphviz version 14.1.1 (20251213.1925)
 -->
<!-- Title: Dependencies Pages: 1 -->
<svg width="344pt" height="285pt"
 viewBox="0.00 0.00 344.00 285.00" xmlns="http://www.w3.org/2000/svg" xmlns:xlink="http://www.w3.org/1999/xlink">
<g id="graph0" class="graph" transform="scale(1 1) rotate(0) translate(4 280.5)">
<title>Dependencies</title>
<polygon fill="white" stroke="none" points="-4,4 -4,-280.5 339.75,-280.5 339.75,4 -4,4"/>
<text xml:space="preserve" text-anchor="middle" x="167.88" y="-7.2" font-family="Times New Roman,serif" font-size="14.00">simple_toml &#45; Dependencies</text>
<!-- simple_toml -->
<g id="node1" class="node">
<title>simple_toml</title>
<polygon fill="lightblue" stroke="black" points="85,-168.5 0,-168.5 0,-132.5 85,-132.5 85,-168.5"/>
<text xml:space="preserve" text-anchor="middle" x="42.5" y="-145.45" font-family="Times New Roman,serif" font-size="14.00">simple_toml</text>
</g>
<!-- simple_datetime -->
<g id="node2" class="node">
<title>simple_datetime</title>
<polygon fill="lightblue" stroke="black" points="335.75,-276.5 229,-276.5 229,-240.5 335.75,-240.5 335.75,-276.5"/>
<text xml:space="preserve" text-anchor="middle" x="282.38" y="-253.45" font-family="Times New Roman,serif" font-size="14.00">simple_datetime</text>
</g>
<!-- simple_toml&#45;&gt;simple_datetime -->
<g id="edge1" class="edge">
<title>simple_toml&#45;&gt;simple_datetime</title>
<path fill="none" stroke="black" stroke-dasharray="5,2" d="M42.75,-168.82C42.75,-199.63 42.75,-258.5 42.75,-258.5 42.75,-258.5 217.08,-258.5 217.08,-258.5"/>
<polygon fill="black" stroke="black" points="217.08,-262 227.08,-258.5 217.08,-255 217.08,-262"/>
</g>
<!-- simple_testing -->
<g id="node3" class="node">
<title>simple_testing</title>
<polygon fill="lightblue" stroke="black" points="330.12,-204.5 234.62,-204.5 234.62,-168.5 330.12,-168.5 330.12,-204.5"/>
<text xml:space="preserve" text-anchor="middle" x="282.38" y="-181.45" font-family="Times New Roman,serif" font-size="14.00">simple_testing</text>
</g>
<!-- simple_toml&#45;&gt;simple_testing -->
<g id="edge2" class="edge">
<title>simple_toml&#45;&gt;simple_testing</title>
<path fill="none" stroke="black" stroke-dasharray="5,2" d="M85.39,-156.5C144.76,-156.5 244.75,-156.5 244.75,-156.5 244.75,-156.5 244.75,-157.65 244.75,-157.65"/>
<polygon fill="black" stroke="black" points="241.25,-156.5 244.75,-166.5 248.25,-156.5 241.25,-156.5"/>
</g>
<!-- base -->
<g id="node4" class="node">
<title>base</title>
<polygon fill="lightgray" stroke="black" points="309.38,-132.5 255.38,-132.5 255.38,-96.5 309.38,-96.5 309.38,-132.5"/>
<text xml:space="preserve" text-anchor="middle" x="282.38" y="-109.45" font-family="Times New Roman,serif" font-size="14.00">base</text>
</g>
<!-- simple_toml&#45;&gt;base -->
<g id="edge3" class="edge">
<title>simple_toml&#45;&gt;base</title>
<path fill="none" stroke="black" stroke-dasharray="5,2" d="M85.45,-144.5C154.56,-144.5 282.75,-144.5 282.75,-144.5 282.75,-144.5 282.75,-143.35 282.75,-143.35"/>
<polygon fill="black" stroke="black" points="286.25,-144.5 282.75,-134.5 279.25,-144.5 286.25,-144.5"/>
</g>
<!-- testing -->
<g id="node5" class="node">
<title>testing</title>
<polygon fill="lightgray" stroke="black" points="309.38,-60.5 255.38,-60.5 255.38,-24.5 309.38,-24.5 309.38,-60.5"/>
<text xml:space="preserve" text-anchor="middle" x="282.38" y="-37.45" font-family="Times New Roman,serif" font-size="14.00">testing</text>
</g>
<!-- simple_toml&#45;&gt;testing -->
<g id="edge4" class="edge">
<title>simple_toml&#45;&gt;testing</title>
<path fill="none" stroke="black" stroke-dasharray="5,2" d="M42.75,-132.18C42.75,-101.37 42.75,-42.5 42.75,-42.5 42.75,-42.5 243.37,-42.5 243.37,-42.5"/>
<polygon fill="black" stroke="black" points="243.37,-46 253.37,-42.5 243.37,-39 243.37,-46"/>
</g>
</g>
</svg>
